M48
;GenerationSoftware,Autodesk,EAGLE,9.6.2*%
;CreationDate,2024-01-22T19:55:50Z*%
FMAT,2
ICI,OFF
METRIC,TZ,000.000
T4C0.305
T3C1.016
T2C1.200
T1C3.048
%
G90
M71
T1
X47498Y90729
X41910Y2540
X2540Y2540
X86868Y2540
X47498Y2540
X41910Y24587
X2540Y24587
X86868Y24587
X47498Y24587
X41910Y46634
X2540Y46634
X86868Y46634
X47498Y46634
X41910Y68682
X2540Y68682
X86868Y68682
X47498Y68682
X41910Y90729
X2540Y90729
X86868Y90729
X47498Y156870
X41910Y112776
X2540Y112776
X86868Y112776
X47498Y112776
X41910Y134823
X2540Y134823
X86868Y134823
X47498Y134823
X41910Y156870
X2540Y156870
X86868Y156870
T2
X10160Y105889
X34290Y17700
X34290Y7700
X10160Y7700
X10160Y17700
X79248Y39747
X79248Y29747
X55118Y29747
X55118Y39747
X79248Y17700
X79248Y7700
X55118Y7700
X55118Y17700
X79248Y61794
X79248Y51794
X55118Y51794
X55118Y61794
X34290Y39747
X34290Y29747
X10160Y29747
X10160Y39747
X34290Y61794
X34290Y51794
X10160Y51794
X10160Y61794
X34290Y83842
X34290Y73842
X10160Y73842
X10160Y83842
X79248Y83842
X79248Y73842
X55118Y73842
X55118Y83842
X34290Y105889
X34290Y95889
X10160Y95889
X79248Y105889
X79248Y95889
X55118Y95889
X55118Y105889
X34290Y127936
X34290Y117936
X10160Y117936
X10160Y127936
X55118Y139983
X79248Y127936
X79248Y117936
X55118Y117936
X55118Y127936
X34290Y149983
X34290Y139983
X10160Y139983
X10160Y149983
X79248Y149983
X79248Y139983
X55118Y149983
X34290Y172030
X34290Y162030
X10160Y162030
X10160Y172030
X79248Y172030
X79248Y162030
X55118Y162030
X55118Y172030
T3
X64008Y67412
X26670Y23317
X24130Y23317
X21590Y23317
X64008Y45364
X26670Y89459
X24130Y89459
X21590Y89459
X19050Y89459
X19050Y23317
X71628Y23317
X69088Y23317
X66548Y23317
X71628Y89459
X69088Y89459
X66548Y89459
X64008Y89459
X64008Y23317
X26670Y45364
X24130Y45364
X21590Y45364
X26670Y111506
X24130Y111506
X19050Y45364
X19050Y111506
X71628Y45364
X69088Y45364
X66548Y45364
X64008Y155600
X71628Y111506
X69088Y111506
X66548Y111506
X64008Y111506
X26670Y1270
X24130Y1270
X21590Y1270
X19050Y1270
X26670Y133553
X24130Y133553
X21590Y133553
X19050Y133553
X26670Y67412
X24130Y67412
X21590Y111506
X21590Y67412
X71628Y133553
X69088Y133553
X66548Y133553
X64008Y133553
X19050Y67412
X71628Y1270
X69088Y1270
X66548Y1270
X26670Y155600
X24130Y155600
X21590Y155600
X19050Y155600
X64008Y1270
X71628Y67412
X69088Y67412
X66548Y67412
X71628Y155600
X69088Y155600
X66548Y155600
T4
X15748Y32080
X15875Y34747
X28956Y34620
X11278Y34061
X13995Y29794
X15875Y39827
X20955Y33147
X20676Y35966
X32004Y39446
X39395Y33020
X1803Y36754
X12700Y23317
X31750Y23317
X38862Y23571
X43307Y32334
X43180Y41097
X40640Y42367
X33020Y42367
X14275Y42951
X32664Y30683
X1194Y27762
X31140Y35687
X31115Y28397
X28727Y40132
X43561Y26619
X40640Y28905
X29287Y37109
X30403Y36094
X4959Y27006
X9068Y24968
X8636Y31297
X4953Y28225
X9068Y26365
X11957Y34842
X14820Y34874
X28935Y33498
X30480Y33477
X27940Y39700
X28321Y29921
X27432Y38938
X27559Y29410
X28956Y30522
X40640Y31699
X32385Y27153
X42418Y31699
X22809Y42189
X25466Y33012
X7358Y40284
X41402Y27762
X26238Y27991
X43180Y38557
X13208Y24460
X15824Y28349
X38862Y24460
X20853Y27610
X18630Y29413
X8890Y27762
X24602Y38752
X18644Y35001
X78105Y35763
X69469Y33096
X60833Y25095
X79045Y26238
X50292Y41859
X62738Y34620
X65786Y28524
X53264Y29947
X49911Y33858
X71628Y42367
X66548Y39929
X74117Y29591
X62662Y37313
X85598Y30810
X60706Y32080
X60833Y34747
X73914Y34620
X56236Y34061
X58953Y29794
X60833Y39827
X65913Y33147
X65634Y35966
X76962Y39446
X84353Y33020
X46761Y36754
X57658Y23317
X76708Y23317
X83820Y23571
X88265Y32334
X88138Y41097
X85598Y42367
X77978Y42367
X59233Y42951
X77622Y30683
X46152Y27762
X76098Y35687
X76073Y28397
X73685Y40132
X88519Y26619
X85598Y28905
X74245Y37109
X75361Y36094
X49917Y27006
X54026Y24968
X53594Y31297
X49911Y28225
X54026Y26365
X56915Y34842
X59778Y34874
X73893Y33498
X75438Y33477
X72898Y39700
X73279Y29921
X72390Y38938
X72517Y29410
X73914Y30522
X85598Y31699
X77343Y27153
X87376Y31699
X67767Y42189
X70424Y33012
X52316Y40284
X86360Y27762
X71196Y27991
X88138Y38557
X58166Y24460
X60782Y28349
X83820Y24460
X65811Y27610
X63588Y29413
X53848Y27762
X69560Y38752
X63602Y35001
X33147Y57810
X24511Y55143
X15875Y47142
X34087Y48285
X5334Y63906
X17780Y56667
X20828Y50571
X8306Y51994
X4953Y55905
X26670Y64414
X21590Y61976
X29159Y51638
X17704Y59360
X40640Y52857
X15748Y54127
X15875Y56794
X28956Y56667
X11278Y56109
X13995Y51841
X15875Y61874
X20955Y55194
X20676Y58014
X32004Y61493
X39395Y55067
X1803Y58801
X12700Y45364
X31750Y45364
X38862Y45618
X43307Y54381
X43180Y63144
X40640Y64414
X33020Y64414
X14275Y64999
X32664Y52730
X1194Y49809
X31140Y57734
X31115Y50444
X28727Y62179
X43561Y48666
X40640Y50952
X29287Y59156
X30403Y58141
X4959Y49053
X9068Y47015
X8636Y53344
X4953Y50273
X9068Y48412
X11957Y56890
X14820Y56921
X28935Y55545
X30480Y55524
X27940Y61747
X28321Y51968
X27432Y60985
X27559Y51457
X28956Y52570
X40640Y53746
X32385Y49200
X42418Y53746
X22809Y64237
X25466Y55059
X7358Y62332
X41402Y49809
X26238Y50038
X43180Y60604
X13208Y46507
X15824Y50396
X38862Y46507
X20853Y49657
X18630Y51460
X8890Y49809
X24602Y60799
X18644Y57048
X78105Y57810
X69469Y55143
X60833Y47142
X79045Y48285
X50292Y63906
X62738Y56667
X65786Y50571
X53264Y51994
X49911Y55905
X71628Y64414
X66548Y61976
X74117Y51638
X62662Y59360
X85598Y52857
X60706Y54127
X60833Y56794
X73914Y56667
X56236Y56109
X58953Y51841
X60833Y61874
X65913Y55194
X65634Y58014
X76962Y61493
X84353Y55067
X46761Y58801
X57658Y45364
X76708Y45364
X83820Y45618
X88265Y54381
X88138Y63144
X85598Y64414
X77978Y64414
X59233Y64999
X77622Y52730
X46152Y49809
X76098Y57734
X76073Y50444
X73685Y62179
X88519Y48666
X85598Y50952
X74245Y59156
X75361Y58141
X49917Y49053
X54026Y47015
X53594Y53344
X49911Y50273
X54026Y48412
X56915Y56890
X59778Y56921
X73893Y55545
X75438Y55524
X72898Y61747
X73279Y51968
X72390Y60985
X72517Y51457
X73914Y52570
X85598Y53746
X77343Y49200
X87376Y53746
X67767Y64237
X70424Y55059
X52316Y62332
X86360Y49809
X71196Y50038
X88138Y60604
X58166Y46507
X60782Y50396
X83820Y46507
X65811Y49657
X63588Y51460
X53848Y49809
X69560Y60799
X63602Y57048
X33147Y79858
X24511Y77191
X15875Y69190
X34087Y70333
X5334Y85954
X17780Y78715
X20828Y72619
X8306Y74041
X4953Y77953
X26670Y86462
X21590Y84023
X29159Y73685
X17704Y81407
X40640Y74905
X15748Y76175
X15875Y78842
X28956Y78715
X11278Y78156
X13995Y73889
X15875Y83922
X20955Y77241
X20676Y80061
X32004Y83541
X39395Y77114
X1803Y80848
X12700Y67412
X31750Y67412
X38862Y67666
X43307Y76429
X43180Y85192
X40640Y86462
X33020Y86462
X14275Y87046
X32664Y74778
X1194Y71857
X31140Y79781
X31115Y72492
X28727Y84226
X43561Y70714
X40640Y73000
X29287Y81203
X30403Y80189
X4959Y71101
X9068Y69063
X8636Y75392
X4953Y72320
X9068Y70460
X11957Y78937
X14820Y78969
X28935Y77592
X30480Y77572
X27940Y83795
X28321Y74016
X27432Y83033
X27559Y73505
X28956Y74617
X40640Y75794
X32385Y71247
X42418Y75794
X22809Y86284
X25466Y77106
X7358Y84379
X41402Y71857
X26238Y72085
X43180Y82652
X13208Y68555
X15824Y72443
X38862Y68555
X20853Y71704
X18630Y73508
X8890Y71857
X24602Y82846
X18644Y79096
X78105Y79858
X69469Y77191
X60833Y69190
X79045Y70333
X50292Y85954
X62738Y78715
X65786Y72619
X53264Y74041
X49911Y77953
X71628Y86462
X66548Y84023
X74117Y73685
X62662Y81407
X85598Y74905
X60706Y76175
X60833Y78842
X73914Y78715
X56236Y78156
X58953Y73889
X60833Y83922
X65913Y77241
X65634Y80061
X76962Y83541
X84353Y77114
X46761Y80848
X57658Y67412
X76708Y67412
X83820Y67666
X88265Y76429
X88138Y85192
X85598Y86462
X77978Y86462
X59233Y87046
X77622Y74778
X46152Y71857
X76098Y79781
X76073Y72492
X73685Y84226
X88519Y70714
X85598Y73000
X74245Y81203
X75361Y80189
X49917Y71101
X54026Y69063
X53594Y75392
X49911Y72320
X54026Y70460
X56915Y78937
X59778Y78969
X73893Y77592
X75438Y77572
X72898Y83795
X73279Y74016
X72390Y83033
X72517Y73505
X73914Y74617
X85598Y75794
X77343Y71247
X87376Y75794
X67767Y86284
X70424Y77106
X52316Y84379
X86360Y71857
X71196Y72085
X88138Y82652
X58166Y68555
X60782Y72443
X83820Y68555
X65811Y71704
X63588Y73508
X53848Y71857
X69560Y82846
X63602Y79096
X33147Y101905
X24511Y99238
X15875Y91237
X34087Y92380
X5334Y108001
X17780Y100762
X20828Y94666
X8306Y96088
X4953Y100000
X26670Y108509
X21590Y106070
X29159Y95733
X17704Y103454
X40640Y96952
X15748Y98222
X15875Y100889
X28956Y100762
X11278Y100203
X13995Y95936
X15875Y105969
X20955Y99289
X20676Y102108
X32004Y105588
X39395Y99162
X1803Y102895
X12700Y89459
X31750Y89459
X38862Y89713
X43307Y98476
X43180Y107239
X40640Y108509
X33020Y108509
X14275Y109093
X32664Y96825
X1194Y93904
X31140Y101829
X31115Y94539
X28727Y106274
X43561Y92761
X40640Y95047
X29287Y103250
X30403Y102236
X4959Y93148
X9068Y91110
X8636Y97439
X4953Y94367
X9068Y92507
X11957Y100984
X14820Y101016
X28935Y99639
X30480Y99619
X27940Y105842
X28321Y96063
X27432Y105080
X27559Y95552
X28956Y96664
X40640Y97841
X32385Y93294
X42418Y97841
X22809Y108331
X25466Y99153
X7358Y106426
X41402Y93904
X26238Y94132
X43180Y104699
X13208Y90602
X15824Y94490
X38862Y90602
X20853Y93751
X18630Y95555
X8890Y93904
X24602Y104893
X18644Y101143
X78105Y101905
X69469Y99238
X60833Y91237
X79045Y92380
X50292Y108001
X62738Y100762
X65786Y94666
X53264Y96088
X49911Y100000
X71628Y108509
X66548Y106070
X74117Y95733
X62662Y103454
X85598Y96952
X60706Y98222
X60833Y100889
X73914Y100762
X56236Y100203
X58953Y95936
X60833Y105969
X65913Y99289
X65634Y102108
X76962Y105588
X84353Y99162
X46761Y102895
X57658Y89459
X76708Y89459
X83820Y89713
X88265Y98476
X88138Y107239
X85598Y108509
X77978Y108509
X59233Y109093
X77622Y96825
X46152Y93904
X76098Y101829
X76073Y94539
X73685Y106274
X88519Y92761
X85598Y95047
X74245Y103250
X75361Y102236
X49917Y93148
X54026Y91110
X53594Y97439
X49911Y94367
X54026Y92507
X56915Y100984
X59778Y101016
X73893Y99639
X75438Y99619
X72898Y105842
X73279Y96063
X72390Y105080
X72517Y95552
X73914Y96664
X85598Y97841
X77343Y93294
X87376Y97841
X67767Y108331
X70424Y99153
X52316Y106426
X86360Y93904
X71196Y94132
X88138Y104699
X58166Y90602
X60782Y94490
X83820Y90602
X65811Y93751
X63588Y95555
X53848Y93904
X69560Y104893
X63602Y101143
X33147Y123952
X24511Y121285
X15875Y113284
X34087Y114427
X5334Y130048
X17780Y122809
X20828Y116713
X8306Y118135
X4953Y122047
X26670Y130556
X21590Y128118
X29159Y117780
X17704Y125501
X40640Y118999
X15748Y120269
X15875Y122936
X28956Y122809
X11278Y122250
X13995Y117983
X15875Y128016
X20955Y121336
X20676Y124155
X32004Y127635
X39395Y121209
X1803Y124943
X12700Y111506
X31750Y111506
X38862Y111760
X43307Y120523
X43180Y129286
X40640Y130556
X33020Y130556
X14275Y131140
X32664Y118872
X1194Y115951
X31140Y123876
X31115Y116586
X28727Y128321
X43561Y114808
X40640Y117094
X29287Y125297
X30403Y124283
X4959Y115195
X9068Y113157
X8636Y119486
X4953Y116414
X9068Y114554
X11957Y123031
X14820Y123063
X28935Y121687
X30480Y121666
X27940Y127889
X28321Y118110
X27432Y127127
X27559Y117599
X28956Y118711
X40640Y119888
X32385Y115341
X42418Y119888
X22809Y130378
X25466Y121200
X7358Y128473
X41402Y115951
X26238Y116180
X43180Y126746
X13208Y112649
X15824Y116537
X38862Y112649
X20853Y115799
X18630Y117602
X8890Y115951
X24602Y126940
X18644Y123190
X78105Y123952
X69469Y121285
X60833Y113284
X79045Y114427
X50292Y130048
X62738Y122809
X65786Y116713
X53264Y118135
X49911Y122047
X71628Y130556
X66548Y128118
X74117Y117780
X62662Y125501
X85598Y118999
X60706Y120269
X60833Y122936
X73914Y122809
X56236Y122250
X58953Y117983
X60833Y128016
X65913Y121336
X65634Y124155
X76962Y127635
X84353Y121209
X46761Y124943
X57658Y111506
X76708Y111506
X83820Y111760
X88265Y120523
X88138Y129286
X85598Y130556
X77978Y130556
X59233Y131140
X77622Y118872
X46152Y115951
X76098Y123876
X76073Y116586
X73685Y128321
X88519Y114808
X85598Y117094
X74245Y125297
X75361Y124283
X49917Y115195
X54026Y113157
X53594Y119486
X49911Y116414
X54026Y114554
X56915Y123031
X59778Y123063
X73893Y121687
X75438Y121666
X72898Y127889
X73279Y118110
X72390Y127127
X72517Y117599
X73914Y118711
X85598Y119888
X77343Y115341
X87376Y119888
X67767Y130378
X70424Y121200
X52316Y128473
X86360Y115951
X71196Y116180
X88138Y126746
X58166Y112649
X60782Y116537
X83820Y112649
X65811Y115799
X63588Y117602
X53848Y115951
X69560Y126940
X63602Y123190
X33147Y145999
X24511Y143332
X15875Y135331
X34087Y136474
X5334Y152095
X17780Y144856
X20828Y138760
X8306Y140183
X4953Y144094
X26670Y152603
X21590Y150165
X29159Y139827
X17704Y147549
X40640Y141046
X15748Y142316
X15875Y144983
X28956Y144856
X11278Y144297
X13995Y140030
X15875Y150063
X20955Y143383
X20676Y146202
X32004Y149682
X39395Y143256
X1803Y146990
X12700Y133553
X31750Y133553
X38862Y133807
X43307Y142570
X43180Y151333
X40640Y152603
X33020Y152603
X14275Y153187
X32664Y140919
X1194Y137998
X31140Y145923
X31115Y138633
X28727Y150368
X43561Y136855
X40640Y139141
X29287Y147345
X30403Y146330
X4959Y137242
X9068Y135204
X8636Y141533
X4953Y138461
X9068Y136601
X11957Y145078
X14820Y145110
X28935Y143734
X30480Y143713
X27940Y149936
X28321Y140157
X27432Y149174
X27559Y139646
X28956Y140758
X40640Y141935
X32385Y137389
X42418Y141935
X22809Y152425
X25466Y143248
X7358Y150520
X41402Y137998
X26238Y138227
X43180Y148793
X13208Y134696
X15824Y138585
X38862Y134696
X20853Y137846
X18630Y139649
X8890Y137998
X24602Y148988
X18644Y145237
X78105Y145999
X69469Y143332
X60833Y135331
X79045Y136474
X50292Y152095
X62738Y144856
X65786Y138760
X53264Y140183
X49911Y144094
X71628Y152603
X66548Y150165
X74117Y139827
X62662Y147549
X85598Y141046
X60706Y142316
X60833Y144983
X73914Y144856
X56236Y144297
X58953Y140030
X60833Y150063
X65913Y143383
X65634Y146202
X76962Y149682
X84353Y143256
X46761Y146990
X57658Y133553
X76708Y133553
X83820Y133807
X88265Y142570
X88138Y151333
X85598Y152603
X77978Y152603
X59233Y153187
X77622Y140919
X46152Y137998
X76098Y145923
X76073Y138633
X73685Y150368
X88519Y136855
X85598Y139141
X74245Y147345
X75361Y146330
X49917Y137242
X54026Y135204
X53594Y141533
X49911Y138461
X33147Y13716
X56915Y145078
X59778Y145110
X73893Y143734
X75438Y143713
X72898Y149936
X73279Y140157
X72390Y149174
X72517Y139646
X73914Y140758
X85598Y141935
X77343Y137389
X87376Y141935
X67767Y152425
X70424Y143248
X52316Y150520
X86360Y137998
X71196Y138227
X88138Y148793
X58166Y134696
X60782Y138585
X83820Y134696
X65811Y137846
X63588Y139649
X53848Y137998
X69560Y148988
X63602Y145237
X33147Y168046
X24511Y165379
X15875Y157378
X34087Y158521
X5334Y174142
X17780Y166903
X20828Y160807
X8306Y162230
X4953Y166141
X26670Y174650
X21590Y172212
X29159Y161874
X17704Y169596
X40640Y163093
X15748Y164363
X15875Y167030
X28956Y166903
X11278Y166345
X13995Y162077
X15875Y172110
X20955Y165430
X20676Y168250
X32004Y171729
X39395Y165303
X1803Y169037
X12700Y155600
X31750Y155600
X38862Y155854
X43307Y164617
X43180Y173380
X40640Y174650
X33020Y174650
X14275Y175235
X32664Y162966
X1194Y160045
X31140Y167970
X31115Y160680
X28727Y172415
X43561Y158902
X40640Y161188
X29287Y169392
X30403Y168377
X4959Y159289
X9068Y157251
X8636Y163580
X4953Y160509
X9068Y158648
X11957Y167126
X14820Y167157
X28935Y165781
X30480Y165760
X27940Y171983
X28321Y162204
X27432Y171221
X27559Y161693
X28956Y162806
X40640Y163982
X32385Y159436
X42418Y163982
X22809Y174473
X25466Y165295
X7358Y172568
X41402Y160045
X26238Y160274
X43180Y170840
X13208Y156743
X15824Y160632
X38862Y156743
X20853Y159893
X18630Y161696
X8890Y160045
X24602Y171035
X18644Y167284
X78105Y168046
X69469Y165379
X60833Y157378
X79045Y158521
X50292Y174142
X62738Y166903
X65786Y160807
X53264Y162230
X49911Y166141
X71628Y174650
X66548Y172212
X74117Y161874
X62662Y169596
X85598Y163093
X60706Y164363
X60833Y167030
X73914Y166903
X56236Y166345
X58953Y162077
X60833Y172110
X65913Y165430
X65634Y168250
X76962Y171729
X84353Y165303
X46761Y169037
X57658Y155600
X76708Y155600
X83820Y155854
X88265Y164617
X88138Y173380
X85598Y174650
X77978Y174650
X59233Y175235
X77622Y162966
X46152Y160045
X76098Y167970
X76073Y160680
X73685Y172415
X88519Y158902
X85598Y161188
X74245Y169392
X75361Y168377
X49917Y159289
X54026Y157251
X53594Y163580
X49911Y160509
X54026Y158648
X56915Y167126
X59778Y167157
X73893Y165781
X75438Y165760
X72898Y171983
X73279Y162204
X72390Y171221
X72517Y161693
X73914Y162806
X85598Y163982
X77343Y159436
X87376Y163982
X67767Y174473
X70424Y165295
X52316Y172568
X86360Y160045
X71196Y160274
X88138Y170840
X58166Y156743
X54026Y136601
X83820Y156743
X65811Y159893
X63588Y161696
X53848Y160045
X69560Y171035
X63602Y167284
X24511Y11049
X15875Y3048
X34087Y4191
X5334Y19812
X17780Y12573
X20828Y6477
X8306Y7899
X4953Y11811
X26670Y20320
X21590Y17882
X29159Y7544
X17704Y15265
X40640Y8763
X15748Y10033
X15875Y12700
X28956Y12573
X11278Y12014
X13995Y7747
X15875Y17780
X20955Y11100
X20676Y13919
X32004Y17399
X39395Y10973
X1803Y14707
X12700Y1270
X31750Y1270
X38862Y1524
X43307Y10287
X43180Y19050
X40640Y20320
X33020Y20320
X14275Y20904
X32664Y8636
X1194Y5715
X31140Y13640
X31115Y6350
X28727Y18085
X43561Y4572
X40640Y6858
X29287Y15061
X30403Y14047
X4959Y4959
X9068Y2921
X8636Y9250
X4953Y6178
X9068Y4318
X11957Y12795
X14820Y12827
X28935Y11451
X30480Y11430
X27940Y17653
X28321Y7874
X27432Y16891
X27559Y7363
X28956Y8475
X40640Y9652
X32385Y5105
X42418Y9652
X22809Y20142
X25466Y10964
X7358Y18237
X41402Y5715
X26238Y5944
X43180Y16510
X13208Y2413
X15824Y6301
X38862Y2413
X20853Y5563
X18630Y7366
X8890Y5715
X24602Y16704
X18644Y12954
X78105Y13716
X69469Y11049
X60833Y3048
X79045Y4191
X50292Y19812
X62738Y12573
X65786Y6477
X53264Y7899
X49911Y11811
X71628Y20320
X66548Y17882
X74117Y7544
X62662Y15265
X85598Y8763
X60706Y10033
X60833Y12700
X73914Y12573
X56236Y12014
X58953Y7747
X60833Y17780
X65913Y11100
X65634Y13919
X76962Y17399
X84353Y10973
X46761Y14707
X57658Y1270
X76708Y1270
X83820Y1524
X88265Y10287
X88138Y19050
X85598Y20320
X77978Y20320
X59233Y20904
X77622Y8636
X46152Y5715
X76098Y13640
X76073Y6350
X73685Y18085
X88519Y4572
X85598Y6858
X74245Y15061
X75361Y14047
X49917Y4959
X54026Y2921
X53594Y9250
X49911Y6178
X54026Y4318
X56915Y12795
X59778Y12827
X73893Y11451
X75438Y11430
X72898Y17653
X73279Y7874
X72390Y16891
X72517Y7363
X73914Y8475
X85598Y9652
X77343Y5105
X87376Y9652
X67767Y20142
X70424Y10964
X52316Y18237
X86360Y5715
X71196Y5944
X88138Y16510
X58166Y2413
X60782Y6301
X83820Y2413
X65811Y5563
X63588Y7366
X53848Y5715
X69560Y16704
X63602Y12954
X33147Y35763
X24511Y33096
X15875Y25095
X34087Y26238
X5334Y41859
X17780Y34620
X20828Y28524
X8306Y29947
X4953Y33858
X26670Y42367
X21590Y39929
X29159Y29591
X17704Y37313
X40640Y30810
X60782Y160632
M30